<svg data-v-423bf9ae="" xmlns="http://www.w3.org/2000/svg" viewBox="0 0 610 90" class="iconLeft"><!----><!----><!----><g data-v-423bf9ae="" id="fda7d468-d800-4832-bedd-c7a0fff23865" fill="black" transform="matrix(5.655042595806296,0,0,5.655042595806296,107.2290212154758,14.773796890623792)"><path d="M3.60 1.69L4.66 1.69C5.75 1.69 6.16 2.41 6.16 3.18C6.16 3.95 5.54 4.56 4.77 4.56L4.19 4.56L4.19 5.66L5.22 5.66C6.30 5.66 7.07 6.52 7.07 7.55C7.07 8.57 6.44 9.51 5.53 9.51L3.60 9.51ZM5.91 10.50C7.91 10.50 9.16 9.24 9.16 7.69C9.16 6.44 8.32 5.38 7.18 5.01C7.81 4.59 8.25 3.88 8.25 3.05C8.25 1.76 7.14 0.70 5.70 0.70L0.64 0.70L0.49 1.69L1.67 2.16L1.67 9.07L0.50 9.51L0.66 10.50ZM16.07 5.74L16.07 4.12C15.54 3.91 15.06 3.81 14.63 3.81C13.99 3.81 13.26 4.02 12.82 4.17L12.25 3.81L10.43 3.96L10.60 4.82L11.23 4.82L11.23 9.34L10.35 9.65L10.51 10.50L13.99 10.50L14.15 9.65L12.99 9.34L12.99 5.10C13.40 4.94 13.97 4.82 14.25 4.82C14.45 4.82 14.71 4.84 14.81 4.87L15.13 5.91ZM18.73 6.38C18.86 5.38 19.45 4.69 20.36 4.69C21.08 4.69 21.64 5.15 21.64 5.98C21.64 6.10 21.63 6.24 21.60 6.38ZM20.66 9.63C19.46 9.63 18.72 8.65 18.69 7.25L23.10 7.25C23.27 6.96 23.41 6.45 23.41 6.08C23.41 4.70 22.04 3.81 20.36 3.81C18.35 3.81 16.77 5.08 16.77 7.22C16.77 9.30 17.93 10.65 20.59 10.65C21.52 10.65 22.40 10.43 23.30 9.70L22.82 8.99C22.11 9.46 21.38 9.63 20.66 9.63ZM24.85 5.74L25.79 5.91L26.10 4.84C26.36 4.77 26.80 4.69 27.13 4.69C27.75 4.69 28.32 5.08 28.32 5.88L28.32 6.37C26.56 6.37 24.33 6.80 24.33 8.71C24.33 9.98 25.44 10.65 26.70 10.65C27.51 10.65 28.08 10.47 28.50 10.18L28.92 10.50L30.70 10.50L30.87 9.65L30.09 9.34L30.09 6.44C30.09 4.75 29.01 3.81 27.20 3.81C26.50 3.81 25.66 3.99 24.85 4.40ZM28.32 9.07C28.08 9.42 27.59 9.63 27.22 9.63C26.82 9.63 26.25 9.38 26.25 8.58C26.25 7.78 27.02 7.24 28.32 7.24ZM38.78 3.96L38.95 4.82C38.22 4.96 37.76 5.19 37.48 5.47L35.81 7.06L36.65 7.24L38.14 9.34L39.16 9.65L38.99 10.50L36.26 10.50L36.40 9.79L34.66 7.39L34.66 6.85L36.46 5.12L35.76 4.82L35.95 3.96ZM34.23 9.34L34.23 0.25L33.40 0.04L31.68 0.25L31.85 1.05L32.47 1.05L32.47 9.34L31.57 9.65L31.74 10.50L34.94 10.50L35.11 9.65ZM42.90 1.69L45.43 1.69L45.99 3.35L46.98 3.19L46.98 0.70L39.93 0.70L39.79 1.69L40.96 2.16L40.96 9.06L39.80 9.51L39.96 10.50L44.35 10.50L44.49 9.51L42.90 9.07L42.90 6.01L44.45 6.01L44.90 7.14L45.88 6.99L45.88 3.92L44.90 3.77L44.45 4.90L42.90 4.90ZM53.27 5.74L53.27 4.12C52.74 3.91 52.26 3.81 51.83 3.81C51.18 3.81 50.46 4.02 50.02 4.17L49.45 3.81L47.63 3.96L47.80 4.82L48.43 4.82L48.43 9.34L47.54 9.65L47.71 10.50L51.18 10.50L51.35 9.65L50.19 9.34L50.19 5.10C50.60 4.94 51.17 4.82 51.45 4.82C51.65 4.82 51.91 4.84 52.01 4.87L52.33 5.91ZM55.93 6.38C56.06 5.38 56.64 4.69 57.55 4.69C58.28 4.69 58.84 5.15 58.84 5.98C58.84 6.10 58.83 6.24 58.80 6.38ZM57.86 9.63C56.66 9.63 55.92 8.65 55.89 7.25L60.30 7.25C60.47 6.96 60.61 6.45 60.61 6.08C60.61 4.70 59.23 3.81 57.55 3.81C55.55 3.81 53.97 5.08 53.97 7.22C53.97 9.30 55.13 10.65 57.79 10.65C58.72 10.65 59.60 10.43 60.49 9.70L60.02 8.99C59.30 9.46 58.58 9.63 57.86 9.63ZM63.62 6.38C63.74 5.38 64.33 4.69 65.24 4.69C65.97 4.69 66.53 5.15 66.53 5.98C66.53 6.10 66.51 6.24 66.49 6.38ZM65.55 9.63C64.34 9.63 63.60 8.65 63.57 7.25L67.98 7.25C68.15 6.96 68.29 6.45 68.29 6.08C68.29 4.70 66.92 3.81 65.24 3.81C63.24 3.81 61.66 5.08 61.66 7.22C61.66 9.30 62.82 10.65 65.48 10.65C66.40 10.65 67.28 10.43 68.18 9.70L67.70 8.99C66.99 9.46 66.26 9.63 65.55 9.63ZM72.38 2.16L73.56 1.69L73.42 0.70L69.43 0.70L69.27 1.68L70.45 2.16L70.45 9.04L69.27 9.51L69.41 10.50L73.42 10.50L73.56 9.49L72.38 9.04ZM75.52 10.50L78.60 10.50L78.75 9.51L77.53 9.06L75.24 5.67L74.28 5.22L76.76 2.70C77.08 2.37 77.71 1.93 78.57 1.69L78.41 0.70L75.04 0.70L74.87 1.69L75.75 2.16L72.97 5.00L72.97 5.74L75.64 9.74ZM82.19 9.34L82.19 3.96L81.34 3.81L79.63 3.96L79.79 4.82L80.43 4.82L80.43 9.34L79.53 9.65L79.70 10.50L82.92 10.50L83.09 9.65ZM81.20 0.74C80.71 0.74 80.29 1.15 80.29 1.65C80.29 2.14 80.71 2.56 81.20 2.56C81.70 2.56 82.11 2.14 82.11 1.65C82.11 1.15 81.70 0.74 81.20 0.74ZM86.49 2.48L85.44 2.24L84.84 3.72L83.79 4.05L83.93 4.82L84.73 4.82L84.73 8.75C84.73 9.81 85.47 10.64 86.87 10.64C87.75 10.64 88.34 10.26 88.89 9.70L88.28 8.96C87.91 9.37 87.44 9.63 87.09 9.63C86.84 9.63 86.49 9.34 86.49 8.86L86.49 4.82L88.17 4.82L88.34 3.96L86.49 3.96Z"></path></g><!----><g data-v-423bf9ae="" id="4467e58d-e3db-4cba-859a-4fdbf3e06a90" transform="matrix(2.8125,0,0,2.8125,0,0)" stroke="none" fill="black"><path d="M16 32c8.837 0 16-7.163 16-16S24.837 0 16 0 0 7.163 0 16s7.163 16 16 16zM14.817 6.421h2v8.886h8.887v2H14.817V6.421zm-5.959.437h2v14.283h14.283v2H8.858V6.858z"></path></g><!----></svg>